<?xml version="1.0" standalone="no"?>
<!DOCTYPE svg PUBLIC "-//W3C//DTD SVG 20010904//EN"
 "http://www.w3.org/TR/2001/REC-SVG-20010904/DTD/svg10.dtd">
<svg version="1.0" xmlns="http://www.w3.org/2000/svg"
 width="933.000000pt" height="1125.000000pt" viewBox="0 0 933.000000 1125.000000"
 preserveAspectRatio="xMidYMid meet">

<g transform="translate(0.000000,1125.000000) scale(0.100000,-0.100000)"
fill="#1882b4" stroke="none">
<path d="M4432 11243 c-37 -3 -65 -9 -67 -16 -3 -7 2 -82 9 -167 7 -85 10
-158 7 -161 -3 -4 -39 -9 -78 -13 -55 -5 -73 -3 -73 6 -3 65 -28 319 -33 324
-3 3 -38 3 -76 -1 -68 -7 -71 -8 -71 -34 0 -14 14 -192 30 -396 16 -203 30
-381 30 -394 0 -24 1 -24 76 -18 42 3 78 7 80 10 4 4 -10 202 -21 299 l-5 46
75 7 c42 4 78 6 80 4 2 -3 9 -63 14 -134 6 -72 14 -149 17 -172 l5 -42 72 6
c40 3 74 7 76 9 9 7 -64 844 -74 842 -5 -1 -38 -3 -73 -5z"/>
<path d="M4794 11216 c-103 -48 -127 -110 -150 -388 -23 -283 -8 -346 99 -412
95 -58 228 -46 303 29 57 58 72 110 90 320 23 266 12 347 -58 412 -69 65 -192
82 -284 39z m165 -150 c32 -34 35 -82 17 -284 -11 -130 -20 -182 -34 -205 -37
-64 -110 -59 -138 10 -14 32 -14 55 0 225 16 191 29 247 63 267 31 18 68 12
92 -13z"/>
<path d="M5425 11161 c-127 -32 -167 -103 -220 -391 -27 -142 -35 -209 -31
-248 16 -140 115 -219 264 -210 94 5 139 35 181 120 18 35 34 80 37 100 6 36
6 37 -32 43 -22 4 -55 11 -76 15 -36 7 -36 7 -48 -36 -31 -108 -134 -131 -160
-35 -11 43 -12 34 30 255 40 204 55 236 117 236 53 0 73 -28 73 -103 l0 -64
70 -12 c38 -7 74 -10 80 -6 18 11 12 165 -9 210 -20 45 -69 91 -116 110 -41
17 -123 25 -160 16z"/>
<path d="M3403 11071 c-29 -9 -55 -19 -58 -23 -7 -6 222 -787 234 -800 5 -6
138 28 150 39 3 2 -49 183 -115 403 -133 447 -114 413 -211 381z"/>
<path d="M2958 10901 c-48 -20 -89 -39 -92 -42 -6 -5 152 -829 160 -838 3 -4
144 48 144 52 0 1 -7 37 -15 80 -23 120 -32 106 111 164 6 2 35 -32 63 -76
l53 -80 37 15 c20 9 53 22 73 31 l36 15 -235 351 c-130 194 -239 355 -242 358
-3 4 -45 -10 -93 -30z m156 -309 c42 -66 76 -123 76 -128 0 -14 -90 -48 -99
-38 -4 5 -20 68 -36 139 -15 72 -30 136 -33 144 -14 38 23 -10 92 -117z"/>
<path d="M6160 10534 c-107 -201 -196 -368 -198 -372 -2 -8 128 -76 133 -70 2
2 49 89 105 193 100 186 128 231 117 190 -3 -11 -29 -116 -57 -234 -39 -168
-48 -216 -38 -223 19 -12 66 -38 71 -38 2 0 78 79 167 175 90 96 165 173 167
172 1 -2 -46 -95 -107 -207 l-109 -204 60 -33 c33 -18 63 -33 68 -33 12 0 402
729 396 740 -3 5 -40 27 -83 50 l-77 40 -80 -82 c-45 -46 -124 -130 -178 -187
-53 -58 -98 -103 -100 -100 -2 2 22 112 54 244 32 132 56 245 54 252 -3 10
-152 94 -165 93 -3 -1 -93 -165 -200 -366z"/>
<path d="M2441 10649 c-35 -14 -241 -139 -241 -147 0 -3 41 -75 91 -159 85
-142 90 -155 76 -171 -15 -16 -13 -21 14 -65 25 -41 32 -47 45 -36 20 17 25
11 124 -154 l82 -138 25 16 c14 9 69 44 124 76 101 62 131 90 155 148 35 83
13 153 -109 359 -142 238 -191 283 -304 281 -32 0 -69 -5 -82 -10z m104 -155
c37 -17 53 -39 153 -205 107 -179 114 -219 42 -264 -22 -14 -44 -25 -49 -25
-5 0 -30 36 -57 81 l-47 81 28 22 28 22 -28 45 c-15 24 -29 46 -31 48 -2 2
-15 -4 -30 -14 -32 -21 -33 -20 -98 89 -26 43 -44 82 -39 86 8 8 85 50 91 50
2 0 19 -7 37 -16z"/>
<path d="M7346 10565 c-19 -14 -19 -15 -1 -35 12 -13 25 -18 40 -14 28 7 39
-9 25 -36 -7 -14 -21 -20 -44 -20 -19 0 -39 -7 -46 -15 -39 -47 95 -55 138 -9
49 55 12 144 -60 144 -18 0 -42 -7 -52 -15z"/>
<path d="M7069 10405 c-67 -21 -123 -76 -241 -237 -131 -177 -146 -202 -157
-264 -15 -77 3 -138 56 -195 55 -59 117 -89 182 -89 108 0 156 37 304 235 66
88 129 179 140 203 14 29 30 45 47 49 55 14 90 53 110 124 8 25 6 28 -27 34
-41 7 -37 10 -56 -37 -17 -41 -47 -52 -47 -18 0 57 -65 142 -138 179 -53 27
-118 33 -173 16z m125 -166 c33 -26 35 -79 6 -127 -41 -66 -228 -307 -249
-319 -31 -19 -78 -16 -101 7 -25 25 -26 70 -1 118 34 65 215 296 250 319 42
28 61 29 95 2z"/>
<path d="M4786 10280 c-3 -18 -6 -48 -6 -66 0 -32 2 -34 34 -34 18 0 47 -3 63
-6 l30 -6 6 63 c3 35 5 64 4 65 -1 1 -29 5 -63 9 l-61 7 -7 -32z"/>
<path d="M3313 10066 c-28 -12 -54 -24 -58 -27 -7 -8 36 -121 44 -117 4 2 30
12 59 22 29 11 52 25 52 32 0 6 -10 34 -22 61 l-23 50 -52 -21z"/>
<path d="M4425 10080 c-247 -18 -553 -77 -775 -150 -1193 -394 -2088 -1457
-2319 -2753 -54 -302 -54 -308 -59 -1427 -4 -1089 1 -1284 38 -1540 92 -652
334 -1223 740 -1752 111 -145 420 -458 565 -574 339 -269 758 -486 1157 -598
308 -87 495 -111 868 -111 308 0 365 5 604 51 858 167 1633 698 2139 1466 267
405 441 829 536 1303 66 330 64 277 68 1545 4 1170 2 1278 -33 1520 -155 1073
-771 2016 -1674 2565 -221 135 -523 266 -781 340 -324 94 -743 138 -1074 115z
m270 -955 c19 -20 44 -53 55 -75 l20 -40 341 0 c382 0 362 -3 467 80 l52 40 0
-38 c0 -20 -7 -48 -16 -60 -18 -26 -50 13 295 -360 131 -141 215 -225 234
-232 17 -5 65 -10 108 -10 44 0 79 -4 79 -8 0 -10 -84 -74 -130 -98 -34 -18
-91 -19 -1524 -22 -1297 -2 -1497 0 -1540 13 -49 14 -146 78 -153 101 -3 8 26
13 91 16 62 2 100 9 112 18 9 8 122 135 249 283 l232 267 -18 53 c-19 54 -24
87 -13 87 4 0 26 -18 49 -39 24 -22 66 -51 94 -65 l50 -26 351 0 350 0 15 38
c18 41 82 112 102 112 7 0 28 -16 48 -35z m1730 -1300 c260 -357 291 -396 324
-405 20 -5 88 -7 156 -4 l120 6 -72 -71 c-40 -38 -96 -83 -125 -98 l-53 -28
-2120 0 -2120 0 -55 30 c-53 29 -205 163 -196 173 3 2 57 -1 121 -7 189 -19
147 -55 481 404 l288 395 1482 0 1481 0 288 -395z m-1705 -710 c0 -51 2 -55
23 -55 36 0 165 -38 217 -65 26 -13 78 -47 115 -75 l67 -51 96 90 c54 49 108
101 121 115 l25 26 48 -47 48 -47 -124 -126 -125 -125 35 -72 c19 -40 41 -101
48 -135 l13 -63 301 -3 302 -2 0 330 0 330 170 0 170 0 0 -725 0 -725 -170 0
-170 0 0 315 0 315 -303 0 -302 0 -12 -62 c-7 -35 -32 -103 -58 -153 l-46 -90
129 -127 129 -127 -49 -48 -48 -47 -123 122 c-68 67 -127 122 -132 122 -4 0
-28 -15 -54 -34 -92 -67 -239 -126 -315 -126 -25 0 -26 -2 -26 -60 l0 -60 -75
0 -75 0 0 58 0 58 -69 16 c-83 20 -180 64 -242 112 l-45 34 -128 -121 -128
-120 -46 46 -47 47 129 129 c72 72 124 131 118 135 -31 19 -96 168 -117 269
l-5 27 -310 0 -310 0 0 -315 0 -315 -170 0 -170 0 0 725 0 725 170 0 170 0 0
-330 0 -330 309 0 308 0 17 67 c9 37 30 98 48 135 l32 69 -127 127 -127 128
48 47 48 47 125 -119 124 -118 50 43 c74 66 193 123 308 148 25 6 27 10 27 61
l0 55 80 0 80 0 0 -55z m-1750 -100 l0 -126 -38 31 c-40 32 -82 96 -82 124 0
11 -9 16 -32 16 -34 0 -150 50 -162 69 -5 8 39 11 153 11 l161 0 0 -125z
m3690 117 c0 -15 -94 -61 -147 -72 -45 -10 -51 -15 -57 -41 -5 -28 -89 -129
-107 -129 -10 0 -12 233 -2 243 9 10 313 8 313 -1z m-4099 -1464 l14 -63 516
-3 515 -2 69 -70 69 -70 911 0 911 0 64 65 64 65 517 0 517 0 6 32 c3 18 11
49 17 70 l10 38 74 0 c65 0 75 -2 75 -17 -1 -10 -27 -112 -58 -228 l-57 -210
-2143 -3 c-1178 -1 -2142 0 -2142 2 0 5 -105 402 -116 439 -5 15 3 17 74 17
l79 0 14 -62z m4079 -1728 l0 -1230 230 0 230 0 0 -120 0 -120 -585 0 -585 0
0 1240 0 1240 -1275 0 -1275 0 -2 -1232 -3 -1233 -125 -3 c-69 -2 -333 0 -587
3 l-463 7 0 114 0 114 230 0 230 0 0 1218 c0 670 3 1222 7 1225 3 4 899 7
1990 7 l1983 0 0 -1230z"/>
<path d="M4573 6919 c-149 -26 -281 -109 -359 -227 -137 -205 -118 -466 47
-646 204 -223 559 -233 773 -21 106 104 156 224 156 376 0 183 -86 338 -244
441 -102 66 -255 98 -373 77z"/>
<path d="M1605 10031 c-123 -56 -179 -202 -123 -320 27 -57 325 -360 383 -388
61 -31 109 -36 168 -19 102 30 179 127 179 225 0 79 -32 133 -144 248 l-102
103 -83 -82 -83 -82 52 -53 52 -53 27 26 c34 32 49 28 89 -27 51 -70 49 -109
-5 -145 -43 -28 -85 -4 -220 128 -138 134 -176 182 -177 227 -2 73 78 96 147
41 l39 -31 53 53 53 52 -31 32 c-73 75 -190 103 -274 65z"/>
<path d="M7578 9537 c-174 -144 -317 -266 -317 -272 -1 -5 21 -35 48 -65 l48
-54 119 98 c65 55 126 105 135 113 14 12 22 6 62 -46 26 -33 47 -61 47 -64 0
-2 -58 -53 -130 -112 -71 -59 -130 -110 -130 -112 0 -2 21 -30 47 -62 l47 -59
66 54 c36 30 181 150 322 267 141 117 257 217 257 222 1 6 -21 34 -47 64 l-47
53 -130 -107 -130 -107 -47 53 c-26 30 -48 59 -47 64 0 6 50 51 110 100 158
129 151 114 95 180 -26 30 -51 55 -54 55 -4 -1 -150 -119 -324 -263z"/>
<path d="M1216 9641 l-46 -60 185 -142 c103 -77 185 -143 183 -144 -2 -2 -109
23 -238 55 -129 33 -240 60 -247 60 -11 0 -109 -118 -102 -124 2 -1 151 -114
331 -249 180 -136 331 -248 337 -249 9 -3 91 98 91 112 0 4 -83 69 -185 146
-101 76 -183 140 -181 142 2 1 115 -25 251 -59 l248 -62 18 24 c52 67 72 100
63 108 -5 5 -151 116 -324 246 -173 131 -320 242 -327 247 -8 6 -25 -10 -57
-51z"/>
<path d="M8523 9284 l-52 -95 28 -44 27 -43 50 61 c83 104 80 90 39 157 -20
33 -37 60 -39 60 -1 0 -25 -43 -53 -96z"/>
<path d="M828 9203 c-3 -37 -2 -38 37 -48 52 -13 59 -40 12 -49 -47 -9 -110
-66 -141 -128 -49 -98 -30 -202 51 -280 46 -44 316 -212 393 -245 105 -44 201
-24 273 57 51 55 70 102 70 170 0 109 -52 167 -269 300 -90 56 -184 108 -207
117 -35 13 -48 25 -63 57 -20 43 -85 86 -131 86 -18 0 -22 -6 -25 -37z m158
-256 c57 -22 297 -171 341 -213 47 -44 51 -60 28 -104 -18 -35 -54 -47 -100
-33 -47 15 -325 186 -359 222 -39 40 -40 85 -2 118 30 25 46 27 92 10z"/>
<path d="M7980 9043 c-217 -80 -397 -147 -399 -149 -3 -2 41 -82 67 -122 7
-10 27 -6 96 19 61 22 90 28 99 21 6 -6 26 -35 42 -66 l30 -56 -68 -61 c-41
-37 -66 -67 -63 -75 3 -8 21 -39 41 -69 l35 -56 293 272 c160 149 302 282 315
294 l24 22 -53 87 c-30 47 -56 86 -59 85 -3 0 -183 -66 -400 -146z m300 -36
c0 -8 -229 -207 -237 -207 -13 0 -59 92 -48 97 6 2 69 28 140 58 128 52 145
58 145 52z"/>
<path d="M485 9059 c-19 -31 -35 -60 -35 -63 0 -3 49 -6 109 -6 l109 0 21 36
c12 19 21 38 21 42 0 4 -43 17 -95 28 l-94 20 -36 -57z"/>
<path d="M527 8699 c-13 -48 -9 -56 32 -63 25 -4 46 -15 55 -28 20 -29 15 -32
-26 -15 l-33 14 -31 -73 -31 -72 275 -119 c288 -123 342 -156 342 -205 0 -14
-10 -38 -22 -53 -35 -44 -78 -33 -382 98 -148 65 -273 117 -276 117 -4 0 -21
-32 -38 -70 l-31 -71 22 -8 c12 -5 128 -55 257 -111 292 -127 330 -140 397
-140 66 0 108 17 150 60 90 92 105 226 35 319 -37 49 -92 80 -315 176 l-202
86 -1 41 c-2 66 -57 122 -130 134 -37 5 -42 4 -47 -17z"/>
<path d="M8413 8251 c-210 -69 -384 -129 -387 -132 -5 -4 30 -126 39 -137 2
-2 101 28 221 67 120 39 219 69 221 67 2 -2 -82 -79 -187 -171 -164 -143 -190
-170 -184 -189 29 -92 43 -121 55 -118 22 3 782 251 786 256 3 2 -5 36 -18 74
l-22 69 -224 -73 c-123 -39 -223 -69 -221 -64 2 4 86 80 188 169 102 89 185
165 185 169 0 4 -9 37 -19 75 -14 48 -23 67 -35 66 -9 -1 -188 -58 -398 -128z"/>
<path d="M368 7937 c-39 -23 -82 -74 -100 -117 -12 -28 -78 -254 -75 -256 1
-1 178 -50 392 -108 215 -59 397 -109 406 -112 13 -4 20 10 34 63 10 37 18 72
19 76 1 5 -46 22 -104 38 -226 64 -208 56 -202 84 2 14 9 29 16 33 6 4 85 9
175 12 l164 5 19 65 c26 95 30 91 -64 85 -46 -2 -132 -7 -193 -10 l-110 -5
-25 47 c-14 26 -40 58 -58 70 -82 55 -229 70 -294 30z m193 -152 c40 -21 53
-61 38 -119 -9 -36 -16 -46 -28 -43 -9 2 -56 15 -104 28 -97 26 -96 24 -65
102 21 54 89 68 159 32z"/>
<path d="M8593 7690 c-95 -21 -194 -48 -220 -60 -98 -43 -143 -112 -143 -220
0 -76 21 -130 71 -179 75 -76 158 -80 422 -20 235 53 292 82 338 171 25 50 26
158 0 213 -22 49 -80 106 -124 122 -60 22 -164 13 -344 -27z m312 -145 c51
-50 16 -121 -73 -144 -115 -31 -318 -71 -357 -71 -56 0 -95 32 -95 79 0 49 43
76 172 105 62 15 140 33 173 40 97 23 152 20 180 -9z"/>
<path d="M9103 7693 c3 -10 8 -29 11 -43 3 -16 22 -35 51 -52 l45 -27 -30 -43
c-26 -38 -29 -47 -21 -81 5 -21 12 -41 14 -44 3 -2 39 24 80 58 l74 64 -14 60
c-7 33 -15 65 -17 71 -4 10 -156 54 -186 54 -6 0 -9 -8 -7 -17z"/>
<path d="M137 7218 c-14 -117 -23 -216 -19 -219 4 -4 37 -10 74 -14 l67 -6 5
35 c3 20 8 52 11 71 5 30 9 34 28 30 12 -2 155 -20 317 -40 162 -19 307 -37
321 -39 26 -5 26 -4 36 75 5 43 5 79 1 79 -5 0 -153 18 -329 40 -177 22 -328
40 -336 40 -13 0 -14 12 -8 69 4 38 3 71 -2 74 -4 2 -38 8 -74 11 l-65 7 -27
-213z"/>
<path d="M8093 7396 c-28 -6 -54 -14 -58 -17 -3 -4 -1 -34 6 -67 l12 -59 61
14 c33 7 61 15 63 16 3 4 -23 117 -28 121 -2 1 -27 -2 -56 -8z"/>
<path d="M8692 7146 l-404 -51 7 -75 c4 -41 9 -77 10 -80 5 -8 821 93 830 102
4 3 4 41 0 82 -6 62 -10 76 -24 75 -9 -1 -198 -24 -419 -53z"/>
<path d="M13 5343 c5 -847 8 -929 53 -1233 147 -1002 598 -1940 1277 -2657
401 -424 811 -729 1317 -982 793 -395 1660 -543 2535 -431 1307 167 2492 924
3248 2075 465 709 736 1523 797 2395 5 80 10 484 10 898 l0 752 -499 0 c-390
0 -501 -3 -509 -13 -7 -8 -12 -278 -15 -822 -4 -859 -5 -890 -58 -1200 -96
-571 -329 -1138 -666 -1622 -519 -745 -1299 -1279 -2143 -1467 -270 -60 -379
-70 -725 -70 -343 -1 -423 7 -680 60 -533 112 -1030 348 -1470 701 -147 117
-394 359 -520 511 -435 519 -738 1163 -859 1826 -64 350 -76 561 -76 1439 l0
657 -511 0 -511 0 5 -817z m8646 -377 l183 -116 109 0 109 0 0 -85 0 -85 -115
0 -115 0 -184 -105 c-101 -58 -189 -105 -196 -105 -9 0 -11 11 -6 38 3 20 6
63 6 94 l0 57 120 57 c66 32 119 61 118 66 -2 5 -55 37 -118 72 l-115 63 -3
88 c-2 71 0 86 11 82 8 -3 96 -57 196 -121z m-7809 -20 l0 -83 -116 -6 c-64
-3 -117 -7 -118 -9 -2 -2 -1 -45 2 -95 l4 -93 119 0 119 0 0 -85 0 -85 -138 0
c-77 0 -214 -3 -305 -7 l-167 -6 0 85 0 86 120 7 120 7 0 94 0 94 -125 0 -125
0 0 85 0 84 148 4 c81 1 218 4 305 5 l157 2 0 -84z m7660 -592 c17 -3 30 -9
30 -12 0 -4 -6 -44 -14 -90 -7 -45 -11 -84 -7 -86 3 -2 106 -18 229 -37 123
-19 228 -37 234 -40 6 -4 5 -34 -3 -88 -12 -80 -13 -82 -38 -77 -60 12 -416
66 -437 66 -20 0 -23 -7 -34 -86 l-12 -85 -57 7 c-31 3 -59 8 -62 10 -4 2 48
351 76 502 7 36 -1 35 95 16z m-7891 -174 c161 -38 295 -71 298 -74 9 -9 33
-201 26 -204 -4 -2 -132 -72 -283 -157 -180 -100 -277 -149 -281 -142 -4 7
-10 39 -14 72 -3 33 -9 69 -11 80 -4 17 6 26 51 48 62 30 61 23 40 157 -8 52
-15 98 -15 102 0 4 -21 10 -47 14 -73 10 -77 14 -89 98 -6 42 -9 78 -7 80 2 2
12 2 21 0 9 -2 149 -36 311 -74z m8044 -596 c141 -40 207 -63 207 -72 0 -18
-41 -152 -46 -152 -5 0 -578 162 -581 164 -1 1 9 38 23 83 l25 81 82 -23 c45
-12 175 -49 290 -81z m-7583 -127 l38 -108 -174 -161 c-96 -89 -174 -162 -174
-164 0 -1 90 29 201 67 110 38 204 69 208 69 7 0 55 -140 49 -144 -4 -4 -539
-184 -557 -188 -22 -5 -97 211 -79 227 109 97 338 308 338 310 0 2 -93 -28
-207 -66 -114 -38 -208 -69 -209 -69 -5 0 -47 141 -42 145 9 9 552 194 562
192 5 -2 26 -51 46 -110z m7243 -196 c5 -5 -4 -39 -22 -83 -30 -71 -33 -74
-60 -70 -36 5 -71 -36 -71 -83 0 -73 61 -70 118 5 104 140 141 170 209 170 53
0 90 -14 127 -48 58 -55 71 -133 37 -241 -50 -162 -154 -250 -261 -221 -22 6
-40 14 -40 18 0 4 12 40 27 80 26 69 29 72 59 72 18 0 40 3 49 6 37 15 60 115
33 142 -7 7 -23 12 -37 12 -25 0 -48 -22 -134 -130 -24 -30 -58 -65 -77 -77
-65 -44 -172 -20 -222 49 -20 28 -23 45 -22 113 0 65 5 91 27 139 57 123 115
170 201 161 27 -2 54 -9 59 -14z m-6988 -480 c82 -36 176 -176 191 -283 19
-137 -101 -279 -273 -323 -147 -38 -270 31 -346 194 -76 161 -15 312 158 397
94 46 187 51 270 15z m6736 -64 c48 -32 71 -81 65 -135 l-6 -43 26 20 c37 29
62 27 172 -18 54 -21 105 -40 114 -42 14 -3 9 -17 -32 -81 -27 -43 -52 -78
-55 -78 -3 0 -46 18 -96 41 -49 22 -97 38 -104 35 -15 -5 -75 -83 -75 -96 0
-5 35 -29 78 -56 42 -26 84 -52 94 -59 15 -10 12 -18 -28 -80 -24 -39 -49 -69
-54 -68 -7 2 -494 297 -508 308 -7 6 162 263 197 299 75 80 146 98 212 53z
m-6337 -531 c25 -33 46 -63 46 -67 0 -8 -461 -364 -471 -364 -8 0 -111 127
-107 131 28 25 475 363 480 361 3 -1 27 -29 52 -61z m5855 15 l44 -39 -93
-107 c-91 -105 -92 -106 -74 -127 11 -11 31 -29 45 -39 l27 -19 82 98 c45 53
85 98 89 99 3 1 26 -15 50 -36 l45 -38 -87 -99 -87 -99 43 -37 c23 -21 45 -38
49 -38 4 0 46 46 94 103 48 56 90 103 94 105 4 1 26 -15 51 -36 l43 -39 -147
-172 c-81 -94 -150 -171 -153 -171 -3 0 -107 84 -232 187 -125 103 -229 188
-231 189 -4 3 292 354 299 353 3 0 25 -17 49 -38z m-330 -688 c50 -155 94
-289 97 -297 4 -9 -22 -35 -76 -76 l-81 -62 -162 103 c-89 56 -210 132 -269
168 -59 36 -107 68 -108 72 0 12 141 111 152 106 7 -2 89 -57 182 -121 94 -63
171 -114 173 -112 2 2 -28 92 -67 200 -38 108 -70 201 -70 205 0 13 124 110
131 102 4 -3 47 -133 98 -288z m-4984 158 c188 -89 264 -261 185 -418 -34 -67
-104 -139 -171 -174 -63 -34 -185 -34 -248 0 -64 34 -146 115 -176 174 -75
150 21 348 204 424 76 31 132 30 206 -6z m4406 -581 c82 -139 146 -257 142
-260 -5 -4 -38 -24 -75 -44 l-67 -37 -14 23 c-90 143 -286 493 -280 498 17 17
129 79 137 77 4 -2 75 -117 157 -257z m-3800 163 c167 -92 211 -128 235 -189
15 -40 16 -53 5 -91 -28 -105 -111 -171 -199 -159 -26 3 -85 25 -132 48 -47
23 -89 42 -94 42 -5 1 -29 -36 -55 -81 -25 -45 -49 -84 -53 -88 -7 -7 -148 66
-148 77 0 7 242 441 276 496 8 12 17 22 20 22 3 0 68 -35 145 -77z m3474 -383
c54 -146 99 -270 102 -275 2 -6 -47 -28 -109 -50 l-112 -39 -168 173 c-92 95
-168 171 -168 169 0 -2 33 -95 74 -207 l74 -202 -26 -10 c-15 -5 -47 -17 -71
-26 -39 -15 -46 -15 -54 -3 -11 19 -206 544 -202 548 1 1 51 20 111 42 l109
40 169 -168 c93 -92 165 -158 162 -147 -4 11 -37 100 -73 198 -36 98 -63 180
-60 183 12 13 132 52 138 46 4 -4 51 -126 104 -272z m-2606 25 c2 -3 -28 -105
-34 -112 -1 -2 -64 17 -140 42 -77 24 -140 43 -141 42 -8 -10 -30 -108 -25
-111 3 -2 59 -20 124 -40 70 -22 117 -42 117 -50 0 -12 -30 -106 -34 -106 -1
0 -56 18 -121 40 -65 22 -122 40 -126 40 -12 0 -42 -101 -33 -110 5 -4 63 -25
129 -46 66 -20 123 -40 127 -43 10 -9 -23 -111 -36 -111 -8 0 -424 129 -433
135 -2 1 166 522 180 558 5 13 39 4 224 -55 120 -39 220 -72 222 -73z m1814
-212 c15 -104 27 -204 27 -224 0 -137 -113 -229 -291 -237 -96 -5 -143 6 -201
45 -62 42 -83 100 -113 321 -15 106 -25 195 -23 197 6 6 158 28 163 24 2 -2
15 -87 30 -189 35 -243 45 -267 122 -277 58 -8 110 18 129 63 14 33 13 50 -10
218 -15 100 -26 191 -26 203 0 21 7 23 156 42 6 0 21 -72 37 -186z m-1428 135
c5 -4 127 -407 136 -448 1 -3 15 91 33 208 17 117 34 213 39 213 4 1 39 -2 78
-6 70 -7 71 -8 66 -34 -3 -14 -22 -147 -43 -296 -20 -148 -38 -271 -39 -273
-3 -3 -229 28 -233 33 -2 2 -32 103 -68 226 -35 122 -65 224 -67 225 -2 2 -16
-89 -32 -202 -16 -113 -32 -210 -36 -215 -5 -9 -137 5 -148 17 -4 3 61 485 76
564 l5 26 113 -16 c63 -8 116 -18 120 -22z"/>
<path d="M564 3993 c4 -27 9 -60 12 -75 l5 -26 110 51 c60 27 107 52 105 54
-3 3 -220 43 -235 43 -2 0 0 -21 3 -47z"/>
<path d="M1171 2618 c-62 -23 -146 -99 -156 -140 -11 -42 2 -77 41 -116 32
-32 38 -34 88 -30 98 8 224 93 242 162 9 36 -13 92 -47 121 -38 31 -92 32
-168 3z"/>
<path d="M7933 2554 c-13 -6 -78 -103 -72 -107 2 -2 16 -11 32 -20 15 -9 38
-24 51 -33 25 -15 25 -15 55 33 35 55 39 93 13 116 -18 16 -54 21 -79 11z"/>
<path d="M2149 1530 c-48 -25 -116 -102 -141 -157 -26 -60 -18 -102 28 -142
45 -40 99 -42 161 -5 51 30 130 130 138 178 14 70 -50 146 -120 146 -16 -1
-46 -9 -66 -20z"/>
<path d="M2787 1083 c-19 -32 -32 -62 -29 -67 7 -12 104 -56 125 -56 26 0 67
45 67 73 0 26 -39 66 -87 91 -18 9 -34 16 -37 16 -3 0 -20 -26 -39 -57z"/>
</g>
</svg>
